<svg width="24" height="24" viewBox="0 0 24 24" fill="none" xmlns="http://www.w3.org/2000/svg">
<g clip-path="url(#clip0_565:15304)">
<path fill-rule="evenodd" clip-rule="evenodd" d="M7.03957 1C7.03957 0.447715 6.59185 0 6.03957 0C5.48728 0 5.03957 0.447715 5.03957 1V1.64788C2.18241 2.10756 0 4.58463 0 7.57142V18.0017C0 21.3154 2.6863 24.0017 6 24.0017H17.8381C21.1518 24.0017 23.8381 21.3154 23.8381 18.0017V7.57143C23.8381 4.58464 21.6557 2.10758 18.7986 1.64789V1C18.7986 0.447715 18.3508 0 17.7986 0C17.2463 0 16.7986 0.447715 16.7986 1V1.57143H12.919V1C12.919 0.447715 12.4713 0 11.919 0C11.3667 0 10.919 0.447715 10.919 1V1.57143H7.03957V1ZM10.919 3.57143H7.03957V4.14311C7.03957 4.6954 6.59185 5.14311 6.03957 5.14311C5.48728 5.14311 5.03957 4.6954 5.03957 4.14311V3.68748C3.45142 4.07888 2.2367 5.41892 2.03086 7.07215H21.8072C21.6014 5.41893 20.3867 4.0789 18.7986 3.68749V4.14311C18.7986 4.6954 18.3508 5.14311 17.7986 5.14311C17.2463 5.14311 16.7986 4.6954 16.7986 4.14311V3.57143H12.919V4.14311C12.919 4.6954 12.4713 5.14311 11.919 5.14311C11.3667 5.14311 10.919 4.6954 10.919 4.14311V3.57143ZM2 18.0017V9.07215H21.8381V18.0017C21.8381 20.2108 20.0472 22.0017 17.8381 22.0017H6C3.79086 22.0017 2 20.2108 2 18.0017ZM4.92738 13.0322C4.92738 13.8188 5.56503 14.4564 6.35161 14.4564C7.13818 14.4564 7.77583 13.8188 7.77583 13.0322C7.77583 12.2456 7.13818 11.608 6.35161 11.608C5.56503 11.608 4.92738 12.2456 4.92738 13.0322ZM11.919 14.4564C11.1325 14.4564 10.4948 13.8188 10.4948 13.0322C10.4948 12.2456 11.1325 11.608 11.919 11.608C12.7056 11.608 13.3433 12.2456 13.3433 13.0322C13.3433 13.8188 12.7056 14.4564 11.919 14.4564ZM16.1917 13.0322C16.1917 13.8188 16.8293 14.4564 17.6159 14.4564C18.4025 14.4564 19.0401 13.8188 19.0401 13.0322C19.0401 12.2456 18.4025 11.608 17.6159 11.608C16.8293 11.608 16.1917 12.2456 16.1917 13.0322ZM11.919 19.2036C11.1325 19.2036 10.4948 18.566 10.4948 17.7794C10.4948 16.9928 11.1325 16.3552 11.919 16.3552C12.7056 16.3552 13.3433 16.9928 13.3433 17.7794C13.3433 18.566 12.7056 19.2036 11.919 19.2036ZM4.79792 17.7794C4.79792 18.566 5.43556 19.2036 6.22214 19.2036C7.00872 19.2036 7.64636 18.566 7.64636 17.7794C7.64636 16.9928 7.00872 16.3552 6.22214 16.3552C5.43556 16.3552 4.79792 16.9928 4.79792 17.7794ZM17.6159 19.2036C16.8293 19.2036 16.1917 18.566 16.1917 17.7794C16.1917 16.9928 16.8293 16.3552 17.6159 16.3552C18.4025 16.3552 19.0401 16.9928 19.0401 17.7794C19.0401 18.566 18.4025 19.2036 17.6159 19.2036Z" fill="white"/>
</g>
<defs>
<clipPath id="clip0_565:15304">
<rect width="24" height="24" fill="white"/>
</clipPath>
</defs>
</svg>
