<svg width="22" height="22" viewBox="0 0 22 22" fill="none" xmlns="http://www.w3.org/2000/svg">
<path d="M0.86572 0.366412C0.387631 0.854962 0.387631 1.64706 0.865721 2.13561L9.28674 10.7409L0.358567 19.8644C-0.119522 20.3529 -0.119522 21.145 0.358567 21.6336C0.836656 22.1221 1.61179 22.1221 2.08988 21.6336L11.0181 12.5101L19.9102 21.5968C20.3883 22.0853 21.1634 22.0853 21.6415 21.5968C22.1196 21.1082 22.1196 20.3161 21.6415 19.8276L12.7494 10.7409L21.1343 2.17244C21.6124 1.68389 21.6124 0.891794 21.1343 0.403244C20.6563 -0.0853062 19.8811 -0.0853058 19.403 0.403244L11.0181 8.97168L2.59703 0.366412C2.11895 -0.122137 1.34381 -0.122137 0.86572 0.366412Z" fill="black"/>
</svg>
