<svg width="10" height="18" viewBox="0 0 10 18" fill="none" xmlns="http://www.w3.org/2000/svg">
<path d="M9.48839 17.2634C9.09786 17.6539 8.4647 17.6539 8.07417 17.2634L0.358431 9.54762C0.336157 9.52892 0.314506 9.50909 0.293553 9.48814C0.125278 9.31986 0.0295114 9.10653 0.00625441 8.88698C-0.0264488 8.59515 0.0690975 8.29167 0.292893 8.06787C0.316288 8.04448 0.340554 8.02248 0.365586 8.00189L8.07458 0.292893C8.46511 -0.0976312 9.09827 -0.0976312 9.4888 0.292893C9.87932 0.683418 9.87932 1.31658 9.4888 1.70711L2.41757 8.77833L9.48839 15.8492C9.87891 16.2397 9.87891 16.8728 9.48839 17.2634Z" fill="#313340"/>
</svg>
