<svg width="24" height="24" viewBox="0 0 24 24" fill="none" xmlns="http://www.w3.org/2000/svg">
<path fill-rule="evenodd" clip-rule="evenodd" d="M2 7C0.895431 7 0 6.10457 0 5C0 3.89543 0.895431 3 2 3C3.10457 3 4 3.89543 4 5C4 6.10457 3.10457 7 2 7ZM8 3.5C7.17157 3.5 6.5 4.17157 6.5 5C6.5 5.82843 7.17157 6.5 8 6.5H22C22.8284 6.5 23.5 5.82843 23.5 5C23.5 4.17157 22.8284 3.5 22 3.5H8ZM0 12C0 13.1046 0.895431 14 2 14C3.10457 14 4 13.1046 4 12C4 10.8954 3.10457 10 2 10C0.895431 10 0 10.8954 0 12ZM8 10.5C7.17157 10.5 6.5 11.1716 6.5 12C6.5 12.8284 7.17157 13.5 8 13.5H22C22.8284 13.5 23.5 12.8284 23.5 12C23.5 11.1716 22.8284 10.5 22 10.5H8ZM0 19C0 20.1046 0.895431 21 2 21C3.10457 21 4 20.1046 4 19C4 17.8954 3.10457 17 2 17C0.895431 17 0 17.8954 0 19ZM8 17.5C7.17157 17.5 6.5 18.1716 6.5 19C6.5 19.8284 7.17157 20.5 8 20.5H22C22.8284 20.5 23.5 19.8284 23.5 19C23.5 18.1716 22.8284 17.5 22 17.5H8Z" fill="white"/>
</svg>
