<svg width="14" height="18" viewBox="0 0 14 18" fill="none" xmlns="http://www.w3.org/2000/svg">
<path fill-rule="evenodd" clip-rule="evenodd" d="M8.90927 4.09085C8.90927 5.65122 7.86492 6.54536 7.00021 6.54536C6.1355 6.54536 5.09115 5.65122 5.09115 4.09085C5.09115 2.53048 6.1355 1.63634 7.00021 1.63634C7.86492 1.63634 8.90927 2.53048 8.90927 4.09085ZM10.2729 4.09085C10.2729 6.19956 8.80767 7.909 7.00021 7.909C5.19275 7.909 3.72752 6.19956 3.72752 4.09085C3.72752 1.98215 5.19275 0.272705 7.00021 0.272705C8.80767 0.272705 10.2729 1.98215 10.2729 4.09085ZM2.50004 11.4546H11.4999C11.8765 11.4546 12.1817 11.7599 12.1817 12.1364V15.3722C12.1817 15.503 12.144 15.6006 12.1043 15.6588C12.069 15.7105 12.0305 15.7368 11.9815 15.7509C11.0319 16.0234 9.37251 16.3636 6.99998 16.3636C4.62745 16.3636 2.96807 16.0234 2.01844 15.7509C1.96951 15.7368 1.93093 15.7105 1.89563 15.6588C1.85593 15.6006 1.81823 15.503 1.81823 15.3722V12.1364C1.81823 11.7599 2.12349 11.4546 2.50004 11.4546ZM0.45459 12.1364C0.45459 11.0068 1.37037 10.091 2.50004 10.091H11.4999C12.6296 10.091 13.5454 11.0068 13.5454 12.1364V15.3722C13.5454 16.147 13.1024 16.8478 12.3577 17.0616C11.2907 17.3678 9.50483 17.7273 6.99998 17.7273C4.49514 17.7273 2.70923 17.3678 1.64224 17.0616C0.897549 16.8478 0.45459 16.147 0.45459 15.3722V12.1364Z" fill="#D5D6D8"/>
</svg>
