<svg width="32" height="32" viewBox="0 0 32 32" fill="none" xmlns="http://www.w3.org/2000/svg">
<rect x="0.5" y="0.5" width="31" height="31" rx="9.5" stroke="#089BAB"/>
<path d="M9.24365 8.9109C8.92492 9.2366 8.92492 9.76467 9.24365 10.0904L14.8577 15.8272L8.90555 21.9096C8.58682 22.2353 8.58682 22.7633 8.90555 23.089C9.22427 23.4147 9.74103 23.4147 10.0598 23.089L16.0119 17.0067L21.94 23.0645C22.2587 23.3902 22.7754 23.3902 23.0942 23.0645C23.4129 22.7388 23.4129 22.2107 23.0942 21.885L17.1661 15.8272L22.7561 10.1149C23.0748 9.78922 23.0748 9.26116 22.7561 8.93546C22.4373 8.60976 21.9206 8.60976 21.6019 8.93546L16.0119 14.6477L10.3979 8.9109C10.0791 8.5852 9.56238 8.5852 9.24365 8.9109Z" fill="#089BAB"/>
</svg>
