<svg width="32" height="32" viewBox="0 0 32 32" fill="none" xmlns="http://www.w3.org/2000/svg">
<rect x="0.5" y="0.5" width="31" height="31" rx="9.5" stroke="#089BAB"/>
<path fill-rule="evenodd" clip-rule="evenodd" d="M21.4998 12.6667L18.4998 12.6933C18.1332 12.7 17.8332 12.4 17.8265 12.0333C17.8198 11.6667 18.1198 11.3667 18.4865 11.36L20.1532 11.3467C20.1998 11.3467 20.2398 11.34 20.2865 11.34C19.1998 10.2267 17.6798 9.53332 15.9998 9.53332C12.6865 9.53332 9.99984 12.22 9.99984 15.5333C9.99984 15.9 9.69984 16.2 9.33317 16.2C8.9665 16.2 8.6665 15.9 8.6665 15.5333C8.6665 11.48 11.9465 8.19999 15.9998 8.19999C18.0065 8.19999 19.8198 9.00665 21.1465 10.3067L21.1332 8.67332C21.1265 8.30665 21.4265 8.00665 21.7932 7.99999C22.1598 7.99332 22.4598 8.29332 22.4665 8.65999L22.4932 11.66C22.4998 12.2133 22.0532 12.6667 21.4998 12.6667Z" fill="#089BAB"/>
<path fill-rule="evenodd" clip-rule="evenodd" d="M21.9998 15.5333C21.9998 18.8467 19.3132 21.5333 15.9998 21.5333C14.4732 21.5333 13.0798 20.96 12.0198 20.02C12.0598 20.0133 12.0998 20.0133 12.1398 20.0133L13.8065 20C14.1732 19.9933 14.4732 19.6933 14.4665 19.3267C14.4598 18.96 14.1598 18.6667 13.7932 18.6667L10.7932 18.6933C10.2398 18.7 9.79984 19.1533 9.79984 19.7L9.8265 22.7C9.83317 23.0667 10.1332 23.3667 10.4998 23.36C10.8665 23.3533 11.1665 23.0533 11.1598 22.6867L11.1465 21.0267C12.4398 22.1733 14.1398 22.8667 15.9998 22.8667C20.0532 22.8667 23.3332 19.5867 23.3332 15.5333C23.3332 15.1667 23.0332 14.8667 22.6665 14.8667C22.2998 14.8667 21.9998 15.1667 21.9998 15.5333Z" fill="#089BAB"/>
</svg>
