<svg width="8" height="12" viewBox="0 0 8 12" fill="none" xmlns="http://www.w3.org/2000/svg">
<path d="M0.838754 11.5089C1.09965 11.7692 1.52265 11.7692 1.78355 11.5089L6.9382 6.36507C6.95309 6.3526 6.96755 6.33938 6.98155 6.32541C7.09397 6.21323 7.15795 6.07101 7.17348 5.92464C7.19533 5.73008 7.1315 5.52776 6.98199 5.37857C6.96636 5.36297 6.95015 5.34831 6.93343 5.33458L1.78327 0.195247C1.52238 -0.0651027 1.09938 -0.0651027 0.83848 0.195247C0.577582 0.455597 0.577583 0.877707 0.838481 1.13806L5.56256 5.85221L0.838754 10.5661C0.577856 10.8264 0.577856 11.2485 0.838754 11.5089Z" fill="black"/>
</svg>
