<svg width="24" height="24" viewBox="0 0 24 24" fill="none" xmlns="http://www.w3.org/2000/svg">
<path fill-rule="evenodd" clip-rule="evenodd" d="M10.5159 21.0319C13.0398 21.0319 15.3533 20.138 17.1725 18.6553L22.2097 23.6924C22.6198 24.1025 23.2823 24.1025 23.6924 23.6924C24.1025 23.2823 24.1025 22.6198 23.6924 22.2097L18.6553 17.1725C20.138 15.3638 21.0319 13.0398 21.0319 10.5159C21.0319 4.71114 16.3207 0 10.5159 0C4.71114 0 0 4.71114 0 10.5159C0 16.3207 4.71114 21.0319 10.5159 21.0319ZM10.5159 18.9287C15.164 18.9287 18.9287 15.164 18.9287 10.5159C18.9287 5.86789 15.164 2.10319 10.5159 2.10319C5.86789 2.10319 2.10319 5.86789 2.10319 10.5159C2.10319 15.164 5.86789 18.9287 10.5159 18.9287Z" fill="white"/>
</svg>
