<svg width="34" height="50" viewBox="0 0 34 50" fill="none" xmlns="http://www.w3.org/2000/svg">
<path fill-rule="evenodd" clip-rule="evenodd" d="M33.9597 16.9796C33.9597 17.0269 33.9595 17.0742 33.9591 17.1214C33.9576 17.5087 33.9412 17.8954 33.9105 18.2813C33.7592 20.2771 33.2629 22.1765 32.481 23.9201C26.871 37.2568 6.86738 48.5389 0 50V17.0647H0.000683403L0.000474473 16.9796C0.000474473 7.60202 7.6025 0 16.9801 0C26.3576 0 33.9597 7.60202 33.9597 16.9796ZM20.1362 28.8398C22.9636 28.8398 25.2556 26.5477 25.2556 23.7203C25.2556 20.8929 22.9636 18.6008 20.1362 18.6008C17.3088 18.6008 15.0167 20.8929 15.0167 23.7203C15.0167 26.5477 17.3088 28.8398 20.1362 28.8398Z" fill="#089BAB"/>
</svg>
