<svg width="43" height="62" viewBox="0 0 43 62" fill="none" xmlns="http://www.w3.org/2000/svg">
<path fill-rule="evenodd" clip-rule="evenodd" d="M42.1097 21.0546C42.1097 21.1048 42.1095 21.155 42.1091 21.2052C42.1079 21.7036 42.0868 22.2011 42.0465 22.6977C41.8564 25.1604 41.2426 27.5045 40.2778 29.6569C33.3236 46.1961 8.51615 60.1877 0 61.9997V21.1601H0.000733441L0.000474473 21.0546C0.000474473 9.42646 9.42694 0 21.0551 0C32.6832 0 42.1097 9.42646 42.1097 21.0546ZM24.9688 35.7611C28.4748 35.7611 31.317 32.919 31.317 29.413C31.317 25.907 28.4748 23.0649 24.9688 23.0649C21.4629 23.0649 18.6207 25.907 18.6207 29.413C18.6207 32.919 21.4629 35.7611 24.9688 35.7611Z" fill="white"/>
</svg>
