<svg width="10" height="18" viewBox="0 0 10 18" fill="none" xmlns="http://www.w3.org/2000/svg">
<path d="M0.293303 17.2634C0.683827 17.6539 1.31699 17.6539 1.70752 17.2634L9.42326 9.54762C9.44553 9.52892 9.46718 9.50909 9.48814 9.48814C9.65641 9.31986 9.75218 9.10654 9.77544 8.88698C9.80814 8.59515 9.71259 8.29167 9.4888 8.06787C9.4654 8.04448 9.44114 8.02248 9.41611 8.00189L1.70711 0.292893C1.31658 -0.0976312 0.683418 -0.0976312 0.292893 0.292893C-0.0976315 0.683418 -0.0976308 1.31658 0.292894 1.70711L7.36412 8.77833L0.293303 15.8492C-0.0972216 16.2397 -0.0972216 16.8728 0.293303 17.2634Z" fill="black"/>
</svg>
