<svg width="28" height="28" viewBox="0 0 28 28" fill="none" xmlns="http://www.w3.org/2000/svg">
<path fill-rule="evenodd" clip-rule="evenodd" d="M19.3181 6.81829C19.3181 9.95627 16.7743 12.5001 13.6363 12.5001C10.4983 12.5001 7.95451 9.95627 7.95451 6.81829C7.95451 3.68031 10.4983 1.13647 13.6363 1.13647C16.7743 1.13647 19.3181 3.68031 19.3181 6.81829ZM17.0454 6.81829C17.0454 8.70108 15.5191 10.2274 13.6363 10.2274C11.7535 10.2274 10.2272 8.70108 10.2272 6.81829C10.2272 4.9355 11.7535 3.4092 13.6363 3.4092C15.5191 3.4092 17.0454 4.9355 17.0454 6.81829Z" fill="white"/>
<path d="M5.68178 25.0001C5.68178 20.6069 9.24316 17.0456 13.6363 17.0456C18.0295 17.0456 21.5909 20.6069 21.5909 25.0001C21.5909 25.6277 22.0996 26.1365 22.7272 26.1365C23.3548 26.1365 23.8636 25.6277 23.8636 25.0001C23.8636 19.3517 19.2847 14.7728 13.6363 14.7728C7.98796 14.7728 3.40906 19.3517 3.40906 25.0001C3.40906 25.6277 3.91782 26.1365 4.54542 26.1365C5.17302 26.1365 5.68178 25.6277 5.68178 25.0001Z" fill="white"/>
</svg>
